<svg width="53" height="53" viewBox="0 0 53 53" fill="none" xmlns="http://www.w3.org/2000/svg">
<path d="M8.83334 26.5C8.83334 16.7612 16.7613 8.83332 26.5 8.83332C36.2388 8.83332 44.1667 16.7612 44.1667 26.5C44.1667 36.2387 36.2388 44.1666 26.5 44.1666C16.7613 44.1666 8.83334 36.2387 8.83334 26.5ZM4.41667 26.5C4.41667 38.69 14.31 48.5833 26.5 48.5833C38.69 48.5833 48.5833 38.69 48.5833 26.5C48.5833 14.31 38.69 4.41666 26.5 4.41666C14.31 4.41666 4.41667 14.31 4.41667 26.5ZM26.5 24.2917L17.6667 24.2917V28.7083L26.5 28.7083L26.5 35.3333L35.3333 26.5L26.5 17.6667V24.2917Z" fill="#1D85FE"/>
</svg>
