<svg width="32" height="32" viewBox="0 0 32 32" fill="none" xmlns="http://www.w3.org/2000/svg">
<path d="M14.6667 9.33334H17.3334V12H14.6667V9.33334ZM14.6667 14.6667H17.3334V22.6667H14.6667V14.6667ZM16 2.66667C8.64002 2.66667 2.66669 8.64 2.66669 16C2.66669 23.36 8.64002 29.3333 16 29.3333C23.36 29.3333 29.3334 23.36 29.3334 16C29.3334 8.64 23.36 2.66667 16 2.66667ZM16 26.6667C10.12 26.6667 5.33335 21.88 5.33335 16C5.33335 10.12 10.12 5.33334 16 5.33334C21.88 5.33334 26.6667 10.12 26.6667 16C26.6667 21.88 21.88 26.6667 16 26.6667Z" fill="black"/>
</svg>
